<svg xmlns="http://www.w3.org/2000/svg" xmlns:xlink="http://www.w3.org/1999/xlink" width="500" zoomAndPan="magnify" viewBox="0 0 375 374.999991" height="500" preserveAspectRatio="xMidYMid meet" version="1.2"><defs><clipPath id="528a6299fe"><path d="M 237 125 L 265.753906 125 L 265.753906 143 L 237 143 Z M 237 125 "/></clipPath><clipPath id="ed8806b041"><path d="M 237 148 L 265.753906 148 L 265.753906 221 L 237 221 Z M 237 148 "/></clipPath><clipPath id="9a6848b49c"><path d="M 109.003906 232 L 143 232 L 143 265.753906 L 109.003906 265.753906 Z M 109.003906 232 "/></clipPath><clipPath id="da6f27362f"><path d="M 109.003906 109.003906 L 233 109.003906 L 233 265.753906 L 109.003906 265.753906 Z M 109.003906 109.003906 "/></clipPath></defs><g id="11df657a42"><rect x="0" width="375" y="0" height="374.999991" style="fill:#ffffff;fill-opacity:1;stroke:none;"/><rect x="0" width="375" y="0" height="374.999991" style="fill:#1f89d7;fill-opacity:1;stroke:none;"/><path style=" stroke:none;fill-rule:nonzero;fill:#ffffff;fill-opacity:1;" d="M 241.445312 235.144531 C 244.449219 233.261719 247.96875 232.125 251.773438 232.125 C 255.574219 232.125 259.097656 233.261719 262.105469 235.144531 L 264.972656 226.53125 L 238.574219 226.53125 L 241.445312 235.144531 "/><path style=" stroke:none;fill-rule:nonzero;fill:#ffffff;fill-opacity:1;" d="M 243.285156 240.667969 L 249.121094 258.179688 C 249.503906 259.320312 250.566406 260.09375 251.773438 260.09375 C 252.976562 260.09375 254.046875 259.320312 254.425781 258.179688 L 260.261719 240.667969 C 257.902344 238.847656 254.980469 237.71875 251.773438 237.71875 C 248.566406 237.71875 245.648438 238.847656 243.285156 240.667969 "/><g clip-rule="nonzero" clip-path="url(#528a6299fe)"><path style=" stroke:none;fill-rule:nonzero;fill:#ffffff;fill-opacity:1;" d="M 257.367188 125.855469 L 246.179688 125.855469 C 241.550781 125.855469 237.789062 129.617188 237.789062 134.246094 L 237.789062 142.632812 L 265.753906 142.632812 L 265.753906 134.246094 C 265.753906 129.617188 261.992188 125.855469 257.367188 125.855469 "/></g><g clip-rule="nonzero" clip-path="url(#ed8806b041)"><path style=" stroke:none;fill-rule:nonzero;fill:#ffffff;fill-opacity:1;" d="M 237.789062 220.941406 L 265.753906 220.941406 L 265.753906 148.226562 L 237.789062 148.226562 L 237.789062 220.941406 "/></g><g clip-rule="nonzero" clip-path="url(#9a6848b49c)"><path style=" stroke:none;fill-rule:nonzero;fill:#ffffff;fill-opacity:1;" d="M 139.90625 232.125 L 111.941406 232.125 C 110.972656 232.125 110.070312 232.628906 109.5625 233.453125 C 109.050781 234.277344 109.007812 235.308594 109.441406 236.171875 L 111.496094 240.285156 C 113.980469 245.25 117.230469 249.757812 121.152344 253.679688 C 125.074219 257.601562 129.582031 260.851562 134.546875 263.335938 L 138.65625 265.390625 C 139.050781 265.585938 139.480469 265.683594 139.90625 265.683594 C 140.417969 265.683594 140.929688 265.546875 141.378906 265.269531 C 142.203125 264.757812 142.703125 263.859375 142.703125 262.890625 L 142.703125 234.921875 C 142.703125 233.378906 141.453125 232.125 139.90625 232.125 "/></g><path style=" stroke:none;fill-rule:nonzero;fill:#ffffff;fill-opacity:1;" d="M 139.90625 187.378906 C 138.363281 187.378906 137.109375 188.632812 137.109375 190.175781 C 137.109375 191.71875 138.363281 192.972656 139.90625 192.972656 C 141.449219 192.972656 142.703125 191.71875 142.703125 190.175781 C 142.703125 188.632812 141.449219 187.378906 139.90625 187.378906 "/><path style=" stroke:none;fill-rule:nonzero;fill:#ffffff;fill-opacity:1;" d="M 139.90625 165.007812 C 138.363281 165.007812 137.109375 166.261719 137.109375 167.804688 C 137.109375 169.347656 138.363281 170.601562 139.90625 170.601562 C 141.449219 170.601562 142.703125 169.347656 142.703125 167.804688 C 142.703125 166.261719 141.449219 165.007812 139.90625 165.007812 "/><path style=" stroke:none;fill-rule:nonzero;fill:#ffffff;fill-opacity:1;" d="M 139.90625 209.753906 C 138.363281 209.753906 137.109375 211.007812 137.109375 212.550781 C 137.109375 214.09375 138.363281 215.347656 139.90625 215.347656 C 141.449219 215.347656 142.703125 214.09375 142.703125 212.550781 C 142.703125 211.007812 141.449219 209.753906 139.90625 209.753906 "/><g clip-rule="nonzero" clip-path="url(#da6f27362f)"><path style=" stroke:none;fill-rule:nonzero;fill:#ffffff;fill-opacity:1;" d="M 207.027344 170.601562 L 156.6875 170.601562 C 155.140625 170.601562 153.890625 169.351562 153.890625 167.804688 C 153.890625 166.257812 155.140625 165.007812 156.6875 165.007812 L 207.027344 165.007812 C 208.574219 165.007812 209.824219 166.257812 209.824219 167.804688 C 209.824219 169.351562 208.574219 170.601562 207.027344 170.601562 Z M 207.027344 192.972656 L 156.6875 192.972656 C 155.140625 192.972656 153.890625 191.722656 153.890625 190.175781 C 153.890625 188.632812 155.140625 187.378906 156.6875 187.378906 L 207.027344 187.378906 C 208.574219 187.378906 209.824219 188.632812 209.824219 190.175781 C 209.824219 191.722656 208.574219 192.972656 207.027344 192.972656 Z M 207.027344 215.347656 L 156.6875 215.347656 C 155.140625 215.347656 153.890625 214.09375 153.890625 212.550781 C 153.890625 211.003906 155.140625 209.753906 156.6875 209.753906 L 207.027344 209.753906 C 208.574219 209.753906 209.824219 211.003906 209.824219 212.550781 C 209.824219 214.09375 208.574219 215.347656 207.027344 215.347656 Z M 139.90625 176.195312 C 135.28125 176.195312 131.519531 172.429688 131.519531 167.804688 C 131.519531 163.175781 135.28125 159.414062 139.90625 159.414062 C 144.535156 159.414062 148.296875 163.175781 148.296875 167.804688 C 148.296875 172.429688 144.535156 176.195312 139.90625 176.195312 Z M 139.90625 198.566406 C 135.28125 198.566406 131.519531 194.804688 131.519531 190.175781 C 131.519531 185.550781 135.28125 181.789062 139.90625 181.789062 C 144.535156 181.789062 148.296875 185.550781 148.296875 190.175781 C 148.296875 194.804688 144.535156 198.566406 139.90625 198.566406 Z M 139.90625 220.941406 C 135.28125 220.941406 131.519531 217.175781 131.519531 212.550781 C 131.519531 207.921875 135.28125 204.160156 139.90625 204.160156 C 144.535156 204.160156 148.296875 207.921875 148.296875 212.550781 C 148.296875 217.175781 144.535156 220.941406 139.90625 220.941406 Z M 223.804688 109.074219 L 131.519531 109.074219 L 131.519531 142.632812 C 131.519531 145.71875 134.027344 148.226562 137.109375 148.226562 C 140.195312 148.226562 142.703125 145.71875 142.703125 142.632812 L 142.703125 127.253906 C 142.703125 125.714844 139.90625 125.714844 139.90625 127.253906 L 139.90625 139.839844 C 139.90625 141.382812 138.65625 142.632812 137.109375 142.632812 C 135.566406 142.632812 134.316406 141.382812 134.316406 139.839844 L 134.316406 127.253906 C 134.316406 123.398438 137.449219 120.261719 141.304688 120.261719 C 145.164062 120.261719 148.296875 123.398438 148.296875 127.253906 L 148.296875 142.632812 C 148.296875 148.804688 143.28125 153.820312 137.109375 153.820312 C 130.941406 153.820312 125.925781 148.804688 125.925781 142.632812 L 125.925781 109.074219 L 117.535156 109.074219 C 112.910156 109.074219 109.144531 112.839844 109.144531 117.464844 L 109.144531 226.53125 L 145.5 226.53125 C 147.046875 226.53125 148.296875 227.785156 148.296875 229.328125 L 148.296875 265.683594 L 223.804688 265.683594 C 228.433594 265.683594 232.195312 261.921875 232.195312 257.296875 L 232.195312 117.464844 C 232.195312 112.839844 228.433594 109.074219 223.804688 109.074219 "/></g></g></svg>